<svg width="1780" height="319" viewBox="0 0 1780 319" fill="none" xmlns="http://www.w3.org/2000/svg">
<path d="M206.473 234.81C203.776 238.106 200.081 241.451 195.388 244.847C190.694 248.242 185.102 251.338 178.611 254.134C172.219 256.83 165.029 259.027 157.04 260.725C149.051 262.423 140.462 263.271 131.275 263.271C118.892 263.271 107.707 261.074 97.7207 256.68C87.7343 252.286 79.1959 245.945 72.1056 237.656C65.0153 229.368 59.5228 219.231 55.628 207.248C51.8332 195.164 49.9358 181.483 49.9358 166.204V136.544C49.9358 121.265 51.9331 107.633 55.9276 95.6497C60.022 83.5662 65.6144 73.3301 72.7048 64.9415C79.895 56.553 88.2836 50.1617 97.8705 45.7677C107.557 41.3736 118.043 39.1766 129.328 39.1766C141.611 39.1766 152.296 40.7245 161.384 43.8203C170.571 46.9161 178.311 51.41 184.602 57.302C190.894 63.0941 195.787 70.1844 199.282 78.573C202.877 86.9616 205.224 96.3987 206.323 106.884H165.279C163.881 95.6997 160.485 87.3111 155.093 81.7187C149.8 76.0265 141.561 73.1803 130.376 73.1803C124.984 73.1803 119.99 74.5784 115.397 77.3746C110.803 80.0709 106.808 84.0655 103.413 89.3583C100.018 94.6511 97.3212 101.242 95.324 109.131C93.3267 116.921 92.3281 125.958 92.3281 136.244V166.204C92.428 186.576 95.8234 202.205 102.514 213.09C109.205 223.875 119.441 229.318 133.222 229.418C136.518 229.418 139.763 229.168 142.959 228.669C146.155 228.169 149.151 227.47 151.947 226.571C154.743 225.673 157.19 224.674 159.287 223.576C161.484 222.377 163.132 221.129 164.23 219.831L164.38 180.284H128.279V148.827H206.323L206.473 234.81Z" fill="#FF5252"/>
<path d="M401.191 167.252C401.191 181.233 399.343 194.116 395.648 205.9C391.953 217.684 386.611 227.82 379.62 236.308C372.63 244.797 364.091 251.438 354.005 256.231C344.019 260.925 332.734 263.271 320.151 263.271C307.568 263.271 296.384 260.925 286.597 256.231C276.81 251.438 268.571 244.797 261.881 236.308C255.19 227.72 250.097 217.584 246.601 205.9C243.106 194.116 241.358 181.233 241.358 167.252V135.495C241.358 121.515 243.106 108.632 246.601 96.8481C250.097 85.0641 255.19 74.9279 261.881 66.4395C268.571 57.8512 276.76 51.1603 286.447 46.3668C296.234 41.5734 307.418 39.1766 320.001 39.1766C332.684 39.1766 344.019 41.5734 354.005 46.3668C364.091 51.1603 372.63 57.8512 379.62 66.4395C386.611 74.9279 391.953 85.0641 395.648 96.8481C399.343 108.632 401.191 121.515 401.191 135.495V167.252ZM358.499 135.196C358.499 126.308 357.75 118.119 356.252 110.629C354.854 103.14 352.607 96.6983 349.511 91.3056C346.415 85.913 342.421 81.7187 337.527 78.7228C332.734 75.627 326.892 74.0791 320.001 74.0791C313.211 74.0791 307.518 75.627 302.925 78.7228C298.331 81.7187 294.636 85.913 291.84 91.3056C289.044 96.6983 287.046 103.14 285.848 110.629C284.65 118.119 284.05 126.308 284.05 135.196V167.252C284.05 176.04 284.65 184.179 285.848 191.669C287.046 199.159 289.044 205.65 291.84 211.142C294.636 216.635 298.331 220.929 302.925 224.025C307.518 227.121 313.261 228.669 320.151 228.669C326.942 228.669 332.734 227.121 337.527 224.025C342.421 220.929 346.365 216.685 349.361 211.292C352.457 205.8 354.754 199.309 356.252 191.819C357.75 184.329 358.499 176.14 358.499 167.252V135.196Z" fill="#FF5252"/>
<path d="M554.715 203.353C554.715 199.458 554.016 195.813 552.618 192.418C551.32 189.023 549.023 185.877 545.727 182.981C542.532 179.985 538.287 177.289 532.995 174.892C527.802 172.395 521.311 170.098 513.521 168.001C504.034 165.405 494.946 162.159 486.258 158.264C477.67 154.37 470.08 149.676 463.489 144.184C456.898 138.691 451.605 132.3 447.611 125.01C443.716 117.72 441.769 109.331 441.769 99.844C441.769 90.6565 443.716 82.3179 447.611 74.8281C451.506 67.3383 456.898 60.947 463.789 55.6542C470.68 50.3614 478.818 46.3169 488.206 43.5207C497.593 40.6247 507.779 39.1766 518.764 39.1766C530.149 39.1766 540.534 40.8244 549.922 44.1199C559.409 47.4154 567.548 52.0591 574.338 58.0509C581.129 63.9429 586.422 70.9833 590.217 79.1722C594.012 87.361 595.909 96.3488 595.909 106.135H554.865C554.665 101.242 553.766 96.7482 552.169 92.6538C550.671 88.5594 548.374 85.0641 545.278 82.1681C542.282 79.1722 538.487 76.8753 533.893 75.2775C529.4 73.5798 524.107 72.7309 518.015 72.7309C512.423 72.7309 507.429 73.43 503.035 74.8281C498.741 76.1263 495.096 78.0237 492.1 80.5203C489.104 82.9171 486.808 85.8131 485.21 89.2085C483.712 92.504 482.963 96.0991 482.963 99.9938C482.963 104.088 483.961 107.783 485.959 111.079C488.056 114.374 491.052 117.37 494.946 120.066C498.841 122.663 503.535 125.06 509.027 127.257C514.62 129.454 520.911 131.501 527.902 133.398C537.888 136.294 547.075 139.84 555.464 144.034C563.853 148.228 571.043 153.221 577.035 159.013C583.126 164.706 587.82 171.247 591.115 178.637C594.511 185.927 596.209 194.066 596.209 203.053C596.209 212.64 594.261 221.179 590.367 228.669C586.572 236.059 581.279 242.35 574.488 247.543C567.697 252.636 559.608 256.531 550.221 259.227C540.834 261.823 530.598 263.122 519.513 263.122C512.622 263.122 505.732 262.473 498.841 261.174C492.05 259.976 485.509 258.079 479.218 255.482C473.026 252.886 467.234 249.64 461.842 245.745C456.449 241.851 451.755 237.307 447.761 232.114C443.866 226.921 440.77 221.029 438.473 214.438C436.276 207.847 435.178 200.557 435.178 192.568H476.522C476.721 199.159 477.87 204.801 479.967 209.495C482.064 214.188 484.96 218.033 488.655 221.029C492.45 224.025 496.944 226.222 502.137 227.62C507.429 229.018 513.222 229.717 519.513 229.717C525.105 229.717 530.049 229.068 534.343 227.77C538.737 226.472 542.432 224.674 545.428 222.377C548.424 220.08 550.72 217.334 552.318 214.138C553.916 210.843 554.715 207.248 554.715 203.353V203.353Z" fill="#FF5252"/>
<path d="M747.186 203.353C747.186 199.458 746.487 195.813 745.089 192.418C743.791 189.023 741.494 185.877 738.198 182.981C735.003 179.985 730.759 177.289 725.466 174.892C720.273 172.395 713.782 170.098 705.992 168.001C696.505 165.405 687.418 162.159 678.729 158.264C670.141 154.37 662.551 149.676 655.96 144.184C649.369 138.691 644.077 132.3 640.082 125.01C636.187 117.72 634.24 109.331 634.24 99.844C634.24 90.6565 636.187 82.3179 640.082 74.8281C643.977 67.3383 649.369 60.947 656.26 55.6542C663.151 50.3614 671.29 46.3169 680.677 43.5207C690.064 40.6247 700.25 39.1766 711.235 39.1766C722.62 39.1766 733.005 40.8244 742.393 44.1199C751.88 47.4154 760.019 52.0591 766.809 58.0509C773.6 63.9429 778.893 70.9833 782.688 79.1722C786.483 87.361 788.38 96.3488 788.38 106.135H747.336C747.136 101.242 746.238 96.7482 744.64 92.6538C743.142 88.5594 740.845 85.0641 737.749 82.1681C734.753 79.1722 730.958 76.8753 726.365 75.2775C721.871 73.5798 716.578 72.7309 710.486 72.7309C704.894 72.7309 699.901 73.43 695.507 74.8281C691.212 76.1263 687.567 78.0237 684.571 80.5203C681.576 82.9171 679.279 85.8131 677.681 89.2085C676.183 92.504 675.434 96.0991 675.434 99.9938C675.434 104.088 676.433 107.783 678.43 111.079C680.527 114.374 683.523 117.37 687.418 120.066C691.312 122.663 696.006 125.06 701.498 127.257C707.091 129.454 713.382 131.501 720.373 133.398C730.359 136.294 739.547 139.84 747.935 144.034C756.324 148.228 763.514 153.221 769.506 159.013C775.597 164.706 780.291 171.247 783.587 178.637C786.982 185.927 788.68 194.066 788.68 203.053C788.68 212.64 786.732 221.179 782.838 228.669C779.043 236.059 773.75 242.35 766.959 247.543C760.168 252.636 752.08 256.531 742.692 259.227C733.305 261.823 723.069 263.122 711.984 263.122C705.094 263.122 698.203 262.473 691.312 261.174C684.522 259.976 677.98 258.079 671.689 255.482C665.497 252.886 659.705 249.64 654.313 245.745C648.92 241.851 644.226 237.307 640.232 232.114C636.337 226.921 633.241 221.029 630.944 214.438C628.747 207.847 627.649 200.557 627.649 192.568H668.993C669.192 199.159 670.341 204.801 672.438 209.495C674.535 214.188 677.431 218.033 681.126 221.029C684.921 224.025 689.415 226.222 694.608 227.62C699.901 229.018 705.693 229.717 711.984 229.717C717.577 229.717 722.52 229.068 726.814 227.77C731.208 226.472 734.903 224.674 737.899 222.377C740.895 220.08 743.192 217.334 744.789 214.138C746.387 210.843 747.186 207.248 747.186 203.353V203.353Z" fill="#FF5252"/>
<path d="M835.699 42.1725H961.827V76.1762H919.285V226.422H961.827V260.276H835.699V226.422H877.193V76.1762H835.699V42.1725Z" fill="#FF5252"/>
<path d="M1063.67 180.284V260.276H1021.58V42.1725H1096.18C1108.06 42.1725 1118.8 43.9202 1128.38 47.4154C1137.97 50.8108 1146.11 55.6043 1152.8 61.7958C1159.59 67.8875 1164.78 75.2275 1168.38 83.8158C1172.07 92.4041 1173.92 101.941 1173.92 112.427C1173.92 122.214 1172.07 131.251 1168.38 139.54C1164.78 147.829 1159.59 155.019 1152.8 161.111C1146.11 167.102 1137.97 171.796 1128.38 175.191C1118.8 178.587 1108.06 180.284 1096.18 180.284H1063.67ZM1063.67 146.131H1096.18C1102.17 146.131 1107.36 145.232 1111.76 143.435C1116.15 141.637 1119.8 139.19 1122.69 136.095C1125.69 132.999 1127.88 129.454 1129.28 125.459C1130.78 121.365 1131.53 117.12 1131.53 112.726C1131.53 107.633 1130.78 102.89 1129.28 98.4958C1127.88 94.1018 1125.69 90.2571 1122.69 86.9616C1119.8 83.666 1116.15 81.0696 1111.76 79.1722C1107.36 77.2747 1102.17 76.326 1096.18 76.326H1063.67V146.131Z" fill="#FF5252"/>
<path d="M1257.04 236.158C1257.04 232.264 1257.69 228.669 1258.99 225.373C1260.29 221.978 1262.18 219.082 1264.68 216.685C1267.18 214.188 1270.22 212.241 1273.82 210.843C1277.41 209.345 1281.46 208.596 1285.95 208.596C1290.45 208.596 1294.49 209.345 1298.09 210.843C1301.68 212.241 1304.68 214.188 1307.07 216.685C1309.57 219.082 1311.47 221.978 1312.77 225.373C1314.16 228.669 1314.86 232.264 1314.86 236.158C1314.86 239.953 1314.16 243.498 1312.77 246.794C1311.47 250.089 1309.57 252.985 1307.07 255.482C1304.68 257.879 1301.68 259.776 1298.09 261.174C1294.49 262.572 1290.45 263.271 1285.95 263.271C1281.46 263.271 1277.41 262.572 1273.82 261.174C1270.22 259.776 1267.18 257.879 1264.68 255.482C1262.18 252.985 1260.29 250.089 1258.99 246.794C1257.69 243.498 1257.04 239.953 1257.04 236.158V236.158ZM1257.04 112.427C1257.04 108.532 1257.69 104.937 1258.99 101.642C1260.29 98.2462 1262.18 95.3501 1264.68 92.9534C1267.18 90.4568 1270.22 88.5094 1273.82 87.1113C1277.41 85.6134 1281.46 84.8644 1285.95 84.8644C1290.45 84.8644 1294.49 85.6134 1298.09 87.1113C1301.68 88.5094 1304.68 90.4568 1307.07 92.9534C1309.57 95.3501 1311.47 98.2462 1312.77 101.642C1314.16 104.937 1314.86 108.532 1314.86 112.427C1314.86 116.222 1314.16 119.767 1312.77 123.062C1311.47 126.358 1309.57 129.254 1307.07 131.751C1304.68 134.147 1301.68 136.045 1298.09 137.443C1294.49 138.841 1290.45 139.54 1285.95 139.54C1281.46 139.54 1277.41 138.841 1273.82 137.443C1270.22 136.045 1267.18 134.147 1264.68 131.751C1262.18 129.254 1260.29 126.358 1258.99 123.062C1257.69 119.767 1257.04 116.222 1257.04 112.427Z" fill="#FF5252"/>
<path d="M1455.95 279H1417.16L1498.8 42.1725H1537.59L1455.95 279Z" fill="#FF5252"/>
<path d="M1648.43 279H1609.63L1691.27 42.1725H1730.06L1648.43 279Z" fill="#FF5252"/>
</svg>
